<svg width="138" height="25" viewBox="0 0 138 40" fill="none" xmlns="http://www.w3.org/2000/svg">
<path d="M15.38 29.32C15.1533 28.6133 14.9067 27.8267 14.64 26.96C14.3867 26.08 14.12 25.18 13.84 24.26C13.5733 23.3267 13.32 22.4267 13.08 21.56C12.84 20.68 12.6267 19.8933 12.44 19.2C12.2667 18.5067 12.14 17.96 12.06 17.56L12.72 17.48C12.6667 17.6533 12.54 18.0067 12.34 18.54C12.14 19.06 11.8933 19.6933 11.6 20.44C11.3067 21.1867 10.9933 21.9867 10.66 22.84C10.3267 23.68 9.99333 24.5067 9.66 25.32C9.32667 26.12 9.02 26.8467 8.74 27.5C8.46 28.1533 8.24 28.66 8.08 29.02L1.94 28.8C1.79333 27.5067 1.65333 26.0733 1.52 24.5C1.4 22.9267 1.28 21.2467 1.16 19.46C1.05333 17.6733 0.953333 15.82 0.86 13.9C0.78 11.9667 0.713333 10 0.66 8C0.606667 5.98666 0.58 3.97333 0.58 1.96L6.66 2.2C6.66 3.44 6.64667 4.79333 6.62 6.26C6.60667 7.71333 6.58667 9.2 6.56 10.72C6.54667 12.2267 6.53333 13.7133 6.52 15.18C6.50667 16.6333 6.5 17.9867 6.5 19.24C6.51333 20.4933 6.53333 21.58 6.56 22.5L6.24 22.78C6.38667 22.34 6.58 21.7533 6.82 21.02C7.07333 20.2867 7.34667 19.4733 7.64 18.58C7.94667 17.6867 8.25333 16.7667 8.56 15.82C8.86667 14.8733 9.15333 13.96 9.42 13.08C9.7 12.1867 9.92667 11.3933 10.1 10.7C10.2867 10.0067 10.4 9.46667 10.44 9.08L14.68 9.02C14.6933 9.23333 14.7533 9.69333 14.86 10.4C14.98 11.1067 15.1333 11.96 15.32 12.96C15.52 13.96 15.7267 15.02 15.94 16.14C16.1667 17.2467 16.3867 18.3267 16.6 19.38C16.8267 20.42 17.0333 21.3467 17.22 22.16C17.4067 22.9733 17.56 23.56 17.68 23.92L16.94 23.98C17.1933 22.5667 17.42 20.9 17.62 18.98C17.82 17.0467 17.9867 15.04 18.12 12.96C18.2667 10.88 18.3733 8.88667 18.44 6.98C18.5067 5.06 18.54 3.41333 18.54 2.04L24.08 1.48C24.08 3.84 23.9867 6.23333 23.8 8.66C23.6267 11.0733 23.4 13.4 23.12 15.64C22.84 17.88 22.5533 19.9267 22.26 21.78C21.9667 23.62 21.6933 25.1533 21.44 26.38C21.2 27.6067 21.0333 28.4067 20.94 28.78L15.38 29.32Z" fill="#9EC1C9"/>
<path d="M36.215 29.36C34.5617 29.36 33.055 29.14 31.695 28.7C30.335 28.26 29.2483 27.54 28.435 26.54C27.635 25.5267 27.235 24.1933 27.235 22.54C27.235 20.8867 27.695 19.5533 28.615 18.54C29.5483 17.5133 30.7817 16.7667 32.315 16.3C33.8483 15.82 35.5283 15.58 37.355 15.58C38.1017 15.58 38.8283 15.6333 39.535 15.74C40.2417 15.8467 40.8617 15.98 41.395 16.14C41.9283 16.2867 42.3017 16.4267 42.515 16.56C42.4883 16.1733 42.415 15.7733 42.295 15.36C42.175 14.9467 41.995 14.5933 41.755 14.3C41.3283 13.6467 40.7217 13.1 39.935 12.66C39.1617 12.22 38.155 12 36.915 12C35.6483 12 34.5483 12.28 33.615 12.84C32.6817 13.4 31.9817 14.0467 31.515 14.78L27.175 11.98C27.775 11.1267 28.575 10.3733 29.575 9.72C30.575 9.06667 31.715 8.56 32.995 8.2C34.275 7.82667 35.635 7.64 37.075 7.64C39.395 7.64 41.2883 8.04 42.755 8.84C44.2217 9.64 45.3017 10.7333 45.995 12.12C46.3283 12.8 46.6017 13.5467 46.815 14.36C47.0283 15.1733 47.1683 16.1333 47.235 17.24C47.275 18.2667 47.3083 19.1933 47.335 20.02C47.3617 20.8467 47.395 21.6 47.435 22.28C47.4617 23.2533 47.575 23.8867 47.775 24.18C47.9883 24.46 48.275 24.6 48.635 24.6C49.0217 24.6 49.355 24.4733 49.635 24.22C49.915 23.9667 50.0883 23.62 50.155 23.18L52.175 26.54C52.055 27.3267 51.6483 27.96 50.955 28.44C50.2617 28.9067 49.415 29.14 48.415 29.14C47.655 29.14 46.955 29.0067 46.315 28.74C45.675 28.46 45.1483 28.1 44.735 27.66C44.335 27.2067 44.1017 26.7133 44.035 26.18C43.795 26.6733 43.3217 27.1667 42.615 27.66C41.9083 28.1533 41.015 28.56 39.935 28.88C38.855 29.2 37.615 29.36 36.215 29.36ZM37.335 25.18C38.0417 25.18 38.755 25.0733 39.475 24.86C40.195 24.6467 40.8483 24.3667 41.435 24.02C42.035 23.6733 42.5083 23.3133 42.855 22.94C42.8283 22.38 42.8083 21.8467 42.795 21.34C42.795 20.8333 42.8017 20.3867 42.815 20C42.495 19.88 41.875 19.74 40.955 19.58C40.0483 19.4067 39.0683 19.32 38.015 19.32C37.0817 19.32 36.215 19.4333 35.415 19.66C34.6283 19.8733 33.9883 20.2 33.495 20.64C33.015 21.0667 32.775 21.6067 32.775 22.26C32.775 23.0067 32.9617 23.5933 33.335 24.02C33.7217 24.4467 34.255 24.7467 34.935 24.92C35.6283 25.0933 36.4283 25.18 37.335 25.18Z" fill="#FFD600"/>
<path d="M64.5334 27.94C64.1868 28.3533 63.5401 28.76 62.5934 29.16C61.6468 29.5733 60.5734 29.78 59.3734 29.78C57.7734 29.78 56.5668 29.3933 55.7534 28.62C54.9534 27.8333 54.4134 26.74 54.1334 25.34C53.8668 23.94 53.7334 22.3133 53.7334 20.46C53.7334 19.1133 53.7468 17.72 53.7734 16.28C53.8001 14.8267 53.8334 13.3733 53.8734 11.92C53.9268 10.4667 53.9801 9.05333 54.0334 7.68C54.0868 6.29333 54.1401 4.98667 54.1934 3.76C54.2601 2.52 54.3201 1.40667 54.3734 0.42C55.2134 0.353333 55.9868 0.32 56.6934 0.32C57.1601 0.32 57.6201 0.333333 58.0734 0.359999C58.5268 0.386666 59.0134 0.426665 59.5334 0.479998C59.4668 1.57333 59.3934 2.81333 59.3134 4.2C59.2468 5.57333 59.1734 6.99333 59.0934 8.46C59.0268 9.92667 58.9601 11.3667 58.8934 12.78C58.8268 14.18 58.7734 15.4667 58.7334 16.64C58.7068 17.8133 58.6934 18.7733 58.6934 19.52C58.6934 20.4267 58.7334 21.2867 58.8134 22.1C58.9068 22.9 59.1001 23.5533 59.3934 24.06C59.6868 24.5667 60.1268 24.82 60.7134 24.82C61.1934 24.82 61.5801 24.7133 61.8734 24.5C62.1668 24.2733 62.4068 23.98 62.5934 23.62C62.6868 23.7667 62.8268 24.0467 63.0134 24.46C63.2001 24.8733 63.4001 25.3267 63.6134 25.82C63.8401 26.3133 64.0401 26.76 64.2134 27.16C64.3868 27.56 64.4934 27.82 64.5334 27.94Z" fill="#F8CDD7"/>
<path d="M77.4241 27.94C77.0774 28.3533 76.4307 28.76 75.4841 29.16C74.5374 29.5733 73.4641 29.78 72.2641 29.78C70.6641 29.78 69.4574 29.3933 68.6441 28.62C67.8441 27.8333 67.3041 26.74 67.0241 25.34C66.7574 23.94 66.6241 22.3133 66.6241 20.46C66.6241 19.1133 66.6374 17.72 66.6641 16.28C66.6907 14.8267 66.7241 13.3733 66.7641 11.92C66.8174 10.4667 66.8707 9.05333 66.9241 7.68C66.9774 6.29333 67.0307 4.98667 67.0841 3.76C67.1507 2.52 67.2107 1.40667 67.2641 0.42C68.1041 0.353333 68.8774 0.32 69.5841 0.32C70.0507 0.32 70.5107 0.333333 70.9641 0.359999C71.4174 0.386666 71.9041 0.426665 72.4241 0.479998C72.3574 1.57333 72.2841 2.81333 72.2041 4.2C72.1374 5.57333 72.0641 6.99333 71.9841 8.46C71.9174 9.92667 71.8507 11.3667 71.7841 12.78C71.7174 14.18 71.6641 15.4667 71.6241 16.64C71.5974 17.8133 71.5841 18.7733 71.5841 19.52C71.5841 20.4267 71.6241 21.2867 71.7041 22.1C71.7974 22.9 71.9907 23.5533 72.2841 24.06C72.5774 24.5667 73.0174 24.82 73.6041 24.82C74.0841 24.82 74.4707 24.7133 74.7641 24.5C75.0574 24.2733 75.2974 23.98 75.4841 23.62C75.5774 23.7667 75.7174 24.0467 75.9041 24.46C76.0907 24.8733 76.2907 25.3267 76.5041 25.82C76.7307 26.3133 76.9307 26.76 77.1041 27.16C77.2774 27.56 77.3841 27.82 77.4241 27.94Z" fill="#FF5E43"/>
<path d="M85.7747 28.98C85.5614 28.9933 85.1747 29.02 84.6147 29.06C84.0547 29.1 83.4747 29.12 82.8747 29.12C82.3947 29.12 81.9214 29.1067 81.4547 29.08C80.988 29.0533 80.5347 29.0133 80.0947 28.96C80.1614 28.6133 80.2347 27.9 80.3147 26.82C80.3947 25.74 80.4747 24.4667 80.5547 23C80.648 21.5333 80.7347 20.02 80.8147 18.46C80.8947 16.8867 80.9547 15.42 80.9947 14.06C81.048 12.6867 81.0747 11.5933 81.0747 10.78C81.3014 10.7667 81.6414 10.7467 82.0947 10.72C82.548 10.6933 83.0414 10.6733 83.5747 10.66C84.108 10.6333 84.6147 10.6133 85.0947 10.6C85.5747 10.5867 85.948 10.58 86.2147 10.58C86.2814 10.98 86.328 11.6067 86.3547 12.46C86.3947 13.3133 86.4147 14.2733 86.4147 15.34C86.4147 16.5667 86.3947 17.88 86.3547 19.28C86.328 20.6667 86.288 22.02 86.2347 23.34C86.1814 24.66 86.108 25.8267 86.0147 26.84C85.9347 27.84 85.8547 28.5533 85.7747 28.98ZM83.8747 7.82C82.768 7.82 81.8547 7.49333 81.1347 6.84C80.4147 6.18667 80.0547 5.34 80.0547 4.3C80.0547 3.56667 80.228 2.94667 80.5747 2.44C80.9214 1.92 81.3747 1.52666 81.9347 1.26C82.4947 0.979998 83.088 0.839998 83.7147 0.839998C84.728 0.839998 85.5547 1.18 86.1947 1.86C86.848 2.52667 87.1747 3.38 87.1747 4.42C87.1747 5.36666 86.8614 6.17333 86.2347 6.84C85.6214 7.49333 84.8347 7.82 83.8747 7.82Z" fill="#B8BAE0"/>
<path d="M95.0022 29.18C94.9755 28.98 94.9089 28.5533 94.8022 27.9C94.6955 27.2467 94.5689 26.4533 94.4222 25.52C94.2755 24.5867 94.1222 23.6 93.9622 22.56C93.8155 21.5067 93.6822 20.4867 93.5622 19.5C93.2289 19.5667 92.7755 19.68 92.2022 19.84C91.6289 19.9867 91.1355 20.1333 90.7222 20.28C90.5489 19.7067 90.4022 18.98 90.2822 18.1C90.1755 17.2067 90.1222 16.3533 90.1222 15.54C90.2422 15.5 90.4422 15.44 90.7222 15.36C91.0022 15.28 91.3089 15.2 91.6422 15.12C91.9755 15.0267 92.2889 14.9533 92.5822 14.9C92.8755 14.8333 93.0822 14.7867 93.2022 14.76C93.1222 14.1067 93.0555 13.4467 93.0022 12.78C92.9489 12.1133 92.9222 11.4733 92.9222 10.86C92.9222 9.24667 93.2022 7.75333 93.7622 6.38C94.3222 5.00667 95.1822 3.9 96.3422 3.06C97.5022 2.20667 98.9622 1.78 100.722 1.78C101.842 1.78 102.802 1.92 103.602 2.2C104.402 2.48 105.076 2.82667 105.622 3.24C106.169 3.65333 106.609 4.07333 106.942 4.5C107.276 4.91333 107.516 5.26 107.662 5.54C107.422 5.98 107.109 6.50666 106.722 7.12C106.336 7.72 105.962 8.28667 105.602 8.82C105.242 9.34 104.976 9.70667 104.802 9.92C104.669 9.70667 104.489 9.44667 104.262 9.14C104.036 8.83333 103.769 8.52667 103.462 8.22C103.169 7.91333 102.836 7.66 102.462 7.46C102.089 7.26 101.669 7.16 101.202 7.16C100.469 7.16 99.8822 7.35333 99.4422 7.74C99.0155 8.11333 98.7089 8.61333 98.5222 9.24C98.3355 9.86667 98.2422 10.5533 98.2422 11.3C98.2422 11.6867 98.2622 12.1267 98.3022 12.62C98.3555 13.1 98.4222 13.54 98.5022 13.94C98.9289 13.9133 99.4889 13.8933 100.182 13.88C100.889 13.8533 101.576 13.84 102.242 13.84C102.922 13.8267 103.436 13.8333 103.782 13.86C103.862 14.4733 103.916 15.2067 103.942 16.06C103.969 16.9133 103.982 17.68 103.982 18.36C103.862 18.36 103.509 18.38 102.922 18.42C102.349 18.4467 101.702 18.4867 100.982 18.54C100.262 18.58 99.6422 18.6267 99.1222 18.68C99.2022 19.1467 99.3089 19.7667 99.4422 20.54C99.5755 21.3 99.7222 22.12 99.8822 23C100.042 23.88 100.196 24.7267 100.342 25.54C100.502 26.3533 100.642 27.06 100.762 27.66C100.882 28.26 100.962 28.64 101.002 28.8C100.536 28.88 99.9422 28.9467 99.2222 29C98.5022 29.0533 97.7622 29.0933 97.0022 29.12C96.2555 29.1467 95.5889 29.1667 95.0022 29.18Z" fill="#BFD1AF"/>
<path d="M116.312 39.54C114.339 39.54 112.572 39.24 111.012 38.64C109.452 38.04 108.185 37.4133 107.212 36.76C107.359 36.3733 107.579 35.88 107.872 35.28C108.179 34.68 108.492 34.0933 108.812 33.52C109.145 32.9467 109.412 32.52 109.612 32.24C110.052 32.52 110.639 32.8467 111.372 33.22C112.105 33.5933 112.919 33.92 113.812 34.2C114.705 34.48 115.605 34.62 116.512 34.62C117.552 34.62 118.425 34.3467 119.132 33.8C119.852 33.2533 120.432 32.52 120.872 31.6C121.325 30.6933 121.652 29.68 121.852 28.56C122.065 27.44 122.179 26.3067 122.192 25.16C121.925 25.6533 121.532 26.14 121.012 26.62C120.505 27.0867 119.885 27.4733 119.152 27.78C118.432 28.0733 117.605 28.22 116.672 28.22C114.672 28.22 113.119 27.6667 112.012 26.56C110.905 25.44 110.132 23.9267 109.692 22.02C109.265 20.1 109.052 17.9467 109.052 15.56C109.052 14.64 109.072 13.68 109.112 12.68C109.152 11.68 109.199 10.64 109.252 9.56C109.452 9.50667 109.759 9.47333 110.172 9.46C110.599 9.43333 111.052 9.42 111.532 9.42C112.159 9.42 112.772 9.44 113.372 9.48C113.985 9.50667 114.405 9.54667 114.632 9.6C114.592 9.8 114.532 10.2067 114.452 10.82C114.385 11.42 114.325 12.14 114.272 12.98C114.219 13.8067 114.192 14.66 114.192 15.54C114.192 16.46 114.232 17.3733 114.312 18.28C114.392 19.1733 114.545 19.9933 114.772 20.74C114.999 21.4733 115.332 22.0667 115.772 22.52C116.212 22.96 116.779 23.18 117.472 23.18C118.419 23.18 119.205 22.8667 119.832 22.24C120.459 21.6 120.939 20.6933 121.272 19.52C121.605 18.3467 121.805 16.96 121.872 15.36C121.912 14.8267 121.939 14.26 121.952 13.66C121.979 13.06 121.992 12.4933 121.992 11.96C122.005 11.4267 122.005 10.9733 121.992 10.6C121.992 10.2133 121.992 9.96667 121.992 9.86C122.272 9.83333 122.552 9.81333 122.832 9.8C123.112 9.78667 123.392 9.78 123.672 9.78C124.765 9.78 125.819 9.89333 126.832 10.12C126.899 11.4933 126.932 13.08 126.932 14.88C126.932 16.12 126.912 17.4667 126.872 18.92C126.845 20.36 126.799 21.84 126.732 23.36C126.679 24.88 126.612 26.3867 126.532 27.88C126.412 30.1467 125.965 32.1533 125.192 33.9C124.419 35.66 123.299 37.04 121.832 38.04C120.365 39.04 118.525 39.54 116.312 39.54Z" fill="#EE8794"/>
<path d="M134.014 23.56C134.934 23.56 135.681 23.88 136.254 24.52C136.828 25.1467 137.114 25.9333 137.114 26.88C137.114 27.7467 136.821 28.4467 136.234 28.98C135.661 29.5 134.974 29.76 134.174 29.76C133.588 29.76 133.028 29.6267 132.494 29.36C131.974 29.0933 131.541 28.7267 131.194 28.26C130.861 27.7933 130.694 27.2533 130.694 26.64C130.694 26.0667 130.848 25.5533 131.154 25.1C131.461 24.6333 131.861 24.26 132.354 23.98C132.861 23.7 133.414 23.56 134.014 23.56Z" fill="black"/>
</svg>
